<svg width="81" height="81" viewBox="0 0 81 81" fill="none" xmlns="http://www.w3.org/2000/svg">
<path d="M55.0921 66.1118C53.9986 66.7373 52.6831 66.4436 51.7959 65.3648C39.6809 49.8502 36.2902 49.056 18.5458 56.27C17.2633 56.8011 15.8896 56.4057 15.2349 55.2613C14.5803 54.1169 14.9213 52.7069 16.0438 51.896C31.5005 40.6241 32.4836 36.8553 25.0586 18.6242C24.5529 17.3271 24.992 16.0296 26.0855 15.4041C27.2044 14.764 28.52 15.0578 29.4071 16.1366C41.4096 31.7493 45.0875 32.7506 62.6572 25.2314C63.9252 24.6748 65.3135 25.0957 65.9681 26.2401C66.6227 27.3844 66.2563 28.8091 65.1593 29.6054C49.7025 40.8773 48.6795 44.6352 56.1445 62.8772C56.6356 64.1489 56.2111 65.4718 55.0921 66.1118Z" fill="white"/>
</svg>
