<svg width="83" height="83" viewBox="0 0 83 83" fill="none" xmlns="http://www.w3.org/2000/svg">
<path d="M25.0223 36.9788C25.6576 36.8441 25.9809 36.3913 25.9536 35.7681C25.542 27.4 26.5463 25.545 34.5093 22.5639C35.1233 22.3289 35.399 21.8162 35.2785 21.2478C35.158 20.6794 34.698 20.3227 34.0414 20.3571C25.5011 20.9449 24.0432 19.507 20.8706 11.7942C20.6356 11.1802 20.1229 10.9046 19.5211 11.0322C18.9861 11.1456 18.6294 11.6056 18.6304 12.2692C19.0804 20.4894 18.0782 22.5187 10.101 25.433C9.48694 25.668 9.2113 26.1806 9.33182 26.749C9.45233 27.3175 9.91938 27.7076 10.5689 27.6398C19.1092 27.0519 20.5336 28.4969 23.7204 36.2766C23.9747 36.8166 24.4874 37.0923 25.0223 36.9788ZM16.6653 80.7829C18.6247 82.1144 21.4405 81.5524 22.7507 79.4927L57.1581 26.3919C58.4684 24.3322 57.9083 21.6907 55.9084 20.3328C53.9419 18.9678 51.1333 19.5633 49.823 21.623L15.3751 74.6975C14.0719 76.7906 14.6583 79.3916 16.6653 80.7829ZM18.39 78.0413C17.7416 77.6198 17.5715 76.8173 17.993 76.1689L42.4432 38.5611L44.7197 40.07L20.2959 77.6373C19.8744 78.2857 19.0385 78.4629 18.39 78.0413ZM69.7362 56.2188C70.2712 56.1053 70.5276 55.6667 70.5216 55.1438C70.1179 48.6259 70.0734 48.251 76.6341 45.7419C77.1478 45.5281 77.4042 45.0895 77.2979 44.5879C77.1774 44.0195 76.7721 43.756 76.2229 43.8026C69.2085 44.1717 69.09 43.7776 66.8139 37.6566C66.6073 37.1763 66.1949 36.8794 65.6599 36.9928C65.1249 37.1063 64.8351 37.552 64.8746 38.0678C65.2377 44.5594 65.3228 44.9606 58.7357 47.5102C58.2149 47.6905 57.9585 48.1292 58.0719 48.6642C58.1783 49.1658 58.6241 49.4556 59.1469 49.4496C66.1471 49.0135 66.2657 49.4077 68.5823 55.555C68.7555 56.0424 69.1678 56.3393 69.7362 56.2188ZM60.4764 68.2446C60.8777 68.1596 61.0814 67.8019 61.1229 67.3389C61.1122 63.4978 60.8163 63.4208 64.8257 61.7322C65.2057 61.5468 65.4094 61.1891 65.3243 60.7879C65.2392 60.3867 64.9079 60.1425 64.4257 60.1748C60.1641 60.3446 60.3962 60.1207 58.8331 56.5389C58.6001 56.0992 58.2688 55.855 57.8676 55.94C57.4664 56.0251 57.2292 56.3898 57.214 56.8123C57.3534 60.7659 57.5348 60.7973 53.5254 62.4859C53.1383 62.6379 52.9417 63.0289 53.0197 63.3967C53.1048 63.798 53.4361 64.0422 53.8586 64.0574C58.2417 63.9667 58.1029 64.1359 59.5251 67.7126C59.7105 68.0926 60.0752 68.3297 60.4764 68.2446Z" fill="white"/>
</svg>
